# xmcd CD database file
#
# Track frame offsets:
#	150
#	20887
#	39300
#
# Disc length: 797 seconds
#
# Revision: 0
# Processed by: cddbd v1.5.1PL2 Copyright (c) Steve Scherf et al.
# Submitted via: CDex 1.51
#
DISCID=1e031b03
DTITLE=中西圭三 - ＳＯ　ＢＡＤ
DYEAR=1995
DGENRE=JPop
TTITLE0=ＳＯ　ＢＡＤ
TTITLE1=はじまりの虹
TTITLE2=ＳＯ　ＢＡＤ（Ｗｉｔｈｏｕｔ　Ｖｏｘ）
EXTD=YEAR: 1995/8/23
EXTT0=
EXTT1=
EXTT2=
PLAYORDER=
